<svg width="231.000000" height="231.000000" viewBox="0 0 231 231" fill="none" xmlns="http://www.w3.org/2000/svg" xmlns:xlink="http://www.w3.org/1999/xlink">
	<desc>
			Created with Pixso.
	</desc>
	<defs>
		<clipPath id="clip1_365">
			<rect id="Frame" width="231.000000" height="231.000000" transform="translate(-0.335571 -0.871094)" fill="white" fill-opacity="0"/>
		</clipPath>
	</defs>
	<g clip-path="url(#clip1_365)">
		<path id="Vector" d="M132.85 11.41L134.81 11.61C134.3 13.32 133.19 14.78 131.68 15.74C130.18 16.69 128.38 17.06 126.62 16.8C125.47 16.69 124.35 16.35 123.33 15.79C122.31 15.24 121.42 14.48 120.7 13.57C119.99 12.66 119.46 11.62 119.16 10.5C118.86 9.38 118.8 8.21 118.96 7.07C119.04 5.91 119.34 4.79 119.86 3.76C120.38 2.73 121.1 1.82 121.99 1.08C122.87 0.33 123.89 -0.22 125 -0.56C126.1 -0.89 127.26 -1 128.41 -0.88C130.19 -0.75 131.87 0.02 133.12 1.29C134.38 2.56 135.13 4.24 135.23 6.03L133.28 5.81C133.16 4.53 132.58 3.33 131.65 2.44C130.73 1.54 129.51 1.01 128.22 0.94C124.34 0.52 121.29 3.27 120.85 7.33C120.71 8.23 120.75 9.16 120.97 10.05C121.19 10.94 121.6 11.77 122.16 12.5C122.72 13.23 123.42 13.84 124.22 14.28C125.03 14.73 125.91 15.01 126.83 15.1C128.11 15.32 129.42 15.07 130.53 14.39C131.64 13.71 132.47 12.65 132.85 11.41Z" fill="#B9E2BF" fill-opacity="1.000000" fill-rule="nonzero"/>
		<path id="Vector" d="M137.36 12.08C137.54 11.28 137.89 10.52 138.37 9.85C138.86 9.19 139.47 8.63 140.18 8.21C140.89 7.78 141.67 7.51 142.49 7.4C143.31 7.29 144.14 7.35 144.93 7.57C145.73 7.79 146.47 8.16 147.11 8.68C147.75 9.19 148.29 9.83 148.68 10.56C149.07 11.28 149.31 12.08 149.38 12.9C149.46 13.72 149.36 14.55 149.11 15.33C148.92 16.14 148.58 16.89 148.09 17.56C147.61 18.23 146.99 18.79 146.28 19.21C145.58 19.63 144.79 19.9 143.98 20.01C143.16 20.12 142.33 20.07 141.53 19.85C140.74 19.63 140 19.25 139.36 18.74C138.71 18.22 138.18 17.58 137.79 16.86C137.4 16.13 137.16 15.33 137.08 14.51C137.01 13.69 137.1 12.86 137.36 12.08ZM139.16 12.57C138.97 13.12 138.9 13.7 138.94 14.27C138.99 14.85 139.15 15.41 139.42 15.92C139.69 16.43 140.06 16.88 140.51 17.24C140.96 17.6 141.48 17.87 142.03 18.03C142.59 18.18 143.17 18.22 143.74 18.14C144.31 18.06 144.86 17.87 145.36 17.57C145.85 17.27 146.28 16.88 146.61 16.41C146.95 15.94 147.19 15.41 147.31 14.84C147.47 14.3 147.53 13.73 147.47 13.16C147.41 12.6 147.24 12.05 146.97 11.56C146.69 11.06 146.32 10.62 145.88 10.27C145.43 9.92 144.92 9.66 144.38 9.51C143.83 9.35 143.26 9.31 142.7 9.39C142.13 9.46 141.59 9.65 141.1 9.93C140.61 10.22 140.18 10.6 139.84 11.05C139.5 11.5 139.26 12.02 139.12 12.57L139.16 12.57Z" fill="#B9E2BF" fill-opacity="1.000000" fill-rule="nonzero"/>
		<path id="Vector" d="M154.9 11.11L156.52 11.82L155.95 13.12C156.6 12.79 157.33 12.62 158.06 12.62C158.79 12.62 159.52 12.79 160.17 13.12C162.91 14.32 163.73 16.77 162.36 19.89L159.55 26.33L157.89 25.61L160.75 19.06C161.67 16.99 161.08 15.4 159.33 14.62C157.17 13.67 155.26 14.85 154.15 17.46L151.76 22.9L150.11 22.17L154.9 11.11Z" fill="#B9E2BF" fill-opacity="1.000000" fill-rule="nonzero"/>
		<path id="Vector" d="M165.91 30C164.14 28.98 163.44 27.49 164.76 25.19L168.18 19.27L166.13 18.09L166.97 16.64L169.01 17.82L170.37 15.49L172.8 14.91L170.59 18.79L173.44 20.44L172.61 21.88L169.75 20.23L166.47 25.92C165.73 27.21 165.74 28.02 166.95 28.72C167.39 28.98 167.89 29.13 168.41 29.14L167.6 30.57C166.99 30.54 166.41 30.34 165.91 30Z" fill="#B9E2BF" fill-opacity="1.000000" fill-rule="nonzero"/>
		<path id="Vector" d="M176.46 35.52C175.75 35.66 175.02 35.65 174.31 35.47C173.61 35.3 172.95 34.98 172.39 34.53C170.55 33.24 169.55 31.1 170.99 29.13C172.43 27.16 174.66 27.6 176.95 29.13C179.03 30.52 179.98 30.43 180.58 29.66C181.35 28.59 180.77 27.19 179.46 26.23C179.18 25.97 178.85 25.77 178.48 25.65C178.12 25.52 177.74 25.47 177.36 25.5C176.98 25.52 176.6 25.62 176.26 25.8C175.92 25.97 175.62 26.21 175.37 26.5L173.98 25.48C174.36 25 174.83 24.6 175.36 24.3C175.9 24.01 176.48 23.83 177.09 23.78C177.7 23.72 178.31 23.79 178.89 23.98C179.47 24.17 180 24.48 180.46 24.88C182.92 26.68 183.34 28.99 181.6 31.36L177.01 37.63L175.85 36.77L176.46 35.52ZM173.5 33.28C173.86 33.59 174.28 33.82 174.73 33.96C175.19 34.09 175.67 34.13 176.14 34.06C176.61 34 177.06 33.84 177.46 33.58C177.86 33.33 178.2 33 178.46 32.6L179.05 31.79C178 31.58 177 31.14 176.15 30.49C174.31 29.31 173.13 29.26 172.47 30.16C171.81 31.05 172.25 32.36 173.5 33.28Z" fill="#B9E2BF" fill-opacity="1.000000" fill-rule="nonzero"/>
		<path id="Vector" d="M188.75 43.06L190.12 44.35C189.11 45.07 187.86 45.39 186.63 45.26C185.39 45.14 184.24 44.57 183.39 43.66C182.19 42.52 181.49 40.94 181.45 39.28C181.4 37.62 182.02 36 183.16 34.8C184.3 33.58 185.87 32.88 187.53 32.82C189.2 32.77 190.81 33.37 192.03 34.5C192.96 35.35 193.57 36.51 193.74 37.76C193.91 39.01 193.63 40.28 192.95 41.35L191.55 40.05C191.93 39.37 192.07 38.58 191.94 37.8C191.82 37.03 191.43 36.33 190.85 35.8C190.42 35.41 189.92 35.1 189.37 34.91C188.82 34.72 188.23 34.64 187.65 34.68C187.07 34.72 186.5 34.88 185.99 35.15C185.47 35.42 185.01 35.79 184.64 36.24C184.21 36.64 183.86 37.11 183.62 37.65C183.38 38.18 183.25 38.76 183.24 39.34C183.24 39.93 183.35 40.51 183.57 41.05C183.8 41.59 184.13 42.08 184.55 42.49C185.09 43.03 185.79 43.39 186.55 43.49C187.31 43.59 188.09 43.44 188.75 43.06Z" fill="#B9E2BF" fill-opacity="1.000000" fill-rule="nonzero"/>
		<path id="Vector" d="M191.78 52.48C190.49 50.91 190.32 49.28 192.34 47.57L197.52 43.17L195.99 41.36L197.29 40.28L198.8 42.1L200.88 40.35L203.36 40.63L200.01 43.48L202.12 46L200.82 47.07L198.71 44.56L193.7 48.78C192.57 49.73 192.3 50.51 193.19 51.58C193.54 51.99 193.99 52.3 194.49 52.48L193.19 53.54C192.63 53.32 192.15 52.95 191.78 52.48Z" fill="#B9E2BF" fill-opacity="1.000000" fill-rule="nonzero"/>
		<path id="Vector" d="M203.45 70.19L202.6 68.66L203.89 67.95C203.18 67.83 202.5 67.56 201.92 67.13C201.34 66.7 200.86 66.14 200.54 65.5C199.01 62.82 199.96 60.64 202.92 58.94L209 55.48L209.91 57.06L203.75 60.56C201.77 61.69 201.16 63.15 202.16 64.86C203.31 66.88 205.45 67 207.92 65.6L212.96 62.61L213.86 64.19L203.45 70.19Z" fill="#B9E2BF" fill-opacity="1.000000" fill-rule="nonzero"/>
		<path id="Vector" d="M211.5 76.09L211.19 74.45C210.75 72 211.29 70.45 212.94 69.77C215.11 68.88 217.04 70.39 217.91 72.51C218.41 73.51 218.49 74.66 218.15 75.73C217.81 76.79 217.07 77.68 216.09 78.21L215.41 76.56C215.97 76.21 216.38 75.66 216.55 75.03C216.72 74.39 216.65 73.71 216.33 73.13C215.74 71.68 214.69 70.99 213.74 71.39C212.99 71.7 212.67 72.47 212.94 73.98L213.25 75.63C213.7 78.02 213.25 79.61 211.51 80.33C209.41 81.19 207.41 80.05 206.33 77.48C205.36 75.12 205.7 72.64 208.08 71.21L208.77 72.87C208.15 73.3 207.71 73.95 207.55 74.68C207.38 75.42 207.5 76.19 207.87 76.85C208.56 78.5 209.57 79.18 210.67 78.73C211.53 78.38 211.77 77.61 211.5 76.09Z" fill="#B9E2BF" fill-opacity="1.000000" fill-rule="nonzero"/>
		<path id="Vector" d="M221.62 108.17L218.56 88.4L220.21 88.14L223.33 107.95L221.62 108.17Z" fill="#B9E2BF" fill-opacity="1.000000" fill-rule="nonzero"/>
		<path id="Vector" d="M218.38 132.27L218.17 134.23C216.47 133.72 215.01 132.62 214.05 131.13C213.1 129.64 212.71 127.85 212.96 126.09C213.29 123.82 214.48 121.77 216.28 120.35C218.08 118.94 220.36 118.28 222.64 118.5C224.92 118.73 227.03 119.83 228.52 121.57C230.01 123.32 230.76 125.57 230.63 127.85C230.51 129.63 229.75 131.3 228.49 132.55C227.24 133.81 225.57 134.56 223.79 134.68L224 132.72C225.28 132.6 226.48 132.03 227.37 131.1C228.27 130.17 228.8 128.96 228.87 127.67C229.3 123.78 226.54 120.74 222.49 120.3C221.58 120.15 220.65 120.19 219.76 120.41C218.86 120.64 218.03 121.04 217.3 121.6C216.57 122.17 215.96 122.87 215.52 123.68C215.07 124.48 214.8 125.37 214.71 126.29C214.5 127.56 214.75 128.87 215.42 129.97C216.1 131.07 217.15 131.89 218.38 132.27Z" fill="#B9E2BF" fill-opacity="1.000000" fill-rule="nonzero"/>
		<path id="Vector" d="M217.69 136.79C218.83 137.15 219.84 137.83 220.6 138.76C221.35 139.69 221.82 140.82 221.94 142.01C222.05 143.2 221.82 144.4 221.26 145.45C220.7 146.51 219.84 147.38 218.79 147.95C217.74 148.52 216.54 148.77 215.35 148.67C214.16 148.57 213.03 148.12 212.09 147.37C211.15 146.63 210.46 145.63 210.09 144.49C209.72 143.35 209.69 142.13 210.01 140.98C210.23 140.19 210.61 139.46 211.12 138.82C211.62 138.19 212.25 137.66 212.97 137.27C213.69 136.88 214.47 136.63 215.28 136.55C216.09 136.47 216.91 136.55 217.69 136.79ZM217.2 138.59C216.65 138.39 216.06 138.3 215.48 138.34C214.89 138.37 214.32 138.53 213.8 138.79C213.28 139.06 212.82 139.43 212.44 139.89C212.07 140.34 211.8 140.87 211.65 141.43C211.49 142 211.45 142.59 211.53 143.17C211.62 143.75 211.82 144.31 212.13 144.81C212.44 145.31 212.85 145.73 213.34 146.06C213.82 146.39 214.37 146.62 214.95 146.73C215.5 146.93 216.08 147.02 216.67 146.99C217.25 146.95 217.82 146.8 218.35 146.53C218.87 146.26 219.33 145.89 219.7 145.43C220.07 144.98 220.34 144.45 220.5 143.89C220.66 143.32 220.69 142.73 220.61 142.15C220.53 141.57 220.32 141.02 220.01 140.52C219.7 140.02 219.29 139.59 218.81 139.26C218.32 138.93 217.78 138.7 217.2 138.59Z" fill="#B9E2BF" fill-opacity="1.000000" fill-rule="nonzero"/>
		<path id="Vector" d="M218.66 154.36L217.95 155.98L216.66 155.42C216.98 156.08 217.15 156.8 217.15 157.53C217.15 158.26 216.98 158.98 216.66 159.63C215.45 162.38 213 163.21 209.87 161.84L203.39 159.02L204.13 157.35L210.61 160.23C212.68 161.14 214.27 160.55 215.05 158.79C216 156.64 214.82 154.72 212.21 153.61L206.76 151.23L207.5 149.55L218.66 154.36Z" fill="#B9E2BF" fill-opacity="1.000000" fill-rule="nonzero"/>
		<path id="Vector" d="M199.78 165.37C200.8 163.61 202.28 162.91 204.58 164.23L210.5 167.65L211.68 165.6L213.12 166.43L211.94 168.48L214.28 169.78L214.87 172.21L210.98 170.01L209.34 172.86L207.89 172.02L209.53 169.17L203.9 165.94C202.6 165.2 201.78 165.2 201.08 166.42C200.82 166.87 200.68 167.37 200.67 167.89L199.24 167.06C199.25 166.46 199.44 165.87 199.78 165.37Z" fill="#B9E2BF" fill-opacity="1.000000" fill-rule="nonzero"/>
		<path id="Vector" d="M194.27 175.89C194.13 175.19 194.14 174.46 194.31 173.76C194.48 173.06 194.8 172.4 195.25 171.84C196.55 169.99 198.7 168.99 200.66 170.43C202.61 171.86 202.18 174.09 200.66 176.39C199.13 178.68 199.36 179.42 200.13 180.01C201.2 180.8 202.6 180.21 203.56 178.9C203.82 178.62 204.01 178.28 204.14 177.92C204.27 177.56 204.32 177.18 204.29 176.79C204.27 176.41 204.16 176.04 203.99 175.7C203.82 175.35 203.58 175.05 203.29 174.81L204.31 173.42C204.79 173.79 205.2 174.26 205.49 174.79C205.79 175.33 205.97 175.92 206.02 176.53C206.08 177.14 206.01 177.75 205.82 178.33C205.62 178.91 205.31 179.44 204.91 179.9C203.1 182.36 200.8 182.77 198.43 181.04L192.24 176.5L193.09 175.32L194.27 175.89ZM196.51 172.94C196.2 173.3 195.97 173.72 195.83 174.17C195.7 174.63 195.66 175.1 195.72 175.57C195.79 176.04 195.95 176.49 196.2 176.9C196.45 177.3 196.79 177.64 197.18 177.9L198 178.5C198.21 177.44 198.65 176.45 199.3 175.58C200.49 173.74 200.53 172.56 199.63 171.92C198.74 171.27 197.42 171.68 196.51 172.94Z" fill="#B9E2BF" fill-opacity="1.000000" fill-rule="nonzero"/>
		<path id="Vector" d="M186.73 188.28L185.43 189.64C184.72 188.62 184.4 187.38 184.52 186.14C184.64 184.91 185.21 183.76 186.11 182.9C187.28 181.78 188.83 181.16 190.45 181.15C192.06 181.14 193.62 181.76 194.8 182.87C195.97 183.98 196.68 185.49 196.77 187.11C196.86 188.72 196.33 190.31 195.28 191.54C194.43 192.48 193.28 193.09 192.03 193.26C190.78 193.43 189.5 193.15 188.44 192.46L189.74 191.06C190.42 191.45 191.21 191.59 191.99 191.46C192.76 191.33 193.47 190.95 194 190.36C194.72 189.46 195.07 188.31 194.99 187.16C194.9 186.01 194.39 184.93 193.55 184.13C192.7 183.34 191.59 182.89 190.44 182.88C189.28 182.87 188.16 183.29 187.3 184.07C186.75 184.61 186.4 185.31 186.3 186.08C186.19 186.84 186.34 187.61 186.73 188.28Z" fill="#B9E2BF" fill-opacity="1.000000" fill-rule="nonzero"/>
		<path id="Vector" d="M177.3 191.26C178.85 189.96 180.49 189.79 182.2 191.82L186.6 197L188.4 195.48L189.48 196.78L187.68 198.29L189.41 200.37L189.13 202.84L186.29 199.46L183.76 201.58L182.69 200.29L185.28 198.18L181.04 193.16C180.1 192.03 179.32 191.75 178.24 192.66C177.84 193 177.53 193.45 177.36 193.95L176.3 192.66C176.5 192.11 176.84 191.62 177.3 191.26Z" fill="#B9E2BF" fill-opacity="1.000000" fill-rule="nonzero"/>
		<path id="Vector" d="M159.58 202.92L161.12 202.05L161.82 203.35C161.94 202.63 162.22 201.96 162.64 201.38C163.07 200.8 163.62 200.33 164.27 200C166.96 198.47 169.14 199.41 170.82 202.37L174.29 208.46L172.71 209.36L169.2 203.21C168.07 201.23 166.61 200.62 164.91 201.62C162.88 202.77 162.76 204.9 164.18 207.37L167.12 212.56L165.54 213.46L159.58 202.92Z" fill="#B9E2BF" fill-opacity="1.000000" fill-rule="nonzero"/>
		<path id="Vector" d="M153.67 210.98L155.33 210.67C157.78 210.21 159.33 210.77 160 212.4C160.9 214.59 159.38 216.52 157.27 217.39C156.27 217.89 155.11 217.97 154.05 217.63C152.98 217.29 152.09 216.54 151.57 215.55L153.2 214.88C153.55 215.44 154.1 215.86 154.74 216.03C155.38 216.2 156.06 216.13 156.65 215.81C158.1 215.21 158.78 214.15 158.38 213.22C158.07 212.47 157.3 212.14 155.79 212.43L154.14 212.73C151.75 213.18 150.17 212.73 149.45 210.99C148.58 208.9 149.72 206.9 152.3 205.81C154.65 204.84 157.13 205.17 158.57 207.57L156.91 208.24C156.47 207.63 155.83 207.19 155.09 207.03C154.35 206.87 153.58 206.99 152.93 207.36C151.27 208.04 150.6 209.06 151.05 210.15C151.4 211 152.17 211.25 153.67 210.98Z" fill="#B9E2BF" fill-opacity="1.000000" fill-rule="nonzero"/>
		<path id="Vector" d="M121.59 221.1L141.37 218.08L141.63 219.72L121.85 222.74L121.59 221.1Z" fill="#B9E2BF" fill-opacity="1.000000" fill-rule="nonzero"/>
		<path id="Vector" d="M97.5 217.84L95.54 217.64C96.05 215.93 97.16 214.47 98.67 213.52C100.17 212.57 101.97 212.19 103.73 212.45C106 212.77 108.06 213.96 109.47 215.77C110.89 217.58 111.55 219.86 111.32 222.14C111.09 224.43 109.99 226.53 108.24 228.02C106.5 229.51 104.24 230.26 101.95 230.12C100.18 230 98.51 229.23 97.25 227.97C96 226.71 95.25 225.03 95.14 223.26L97.09 223.47C97.21 224.75 97.79 225.94 98.72 226.84C99.64 227.73 100.86 228.27 102.15 228.34C106.03 228.75 109.06 226.01 109.51 221.95C109.65 221.04 109.62 220.11 109.39 219.22C109.17 218.33 108.77 217.5 108.21 216.77C107.65 216.04 106.94 215.43 106.14 214.99C105.33 214.54 104.45 214.27 103.53 214.18C102.25 213.95 100.93 214.2 99.82 214.87C98.71 215.55 97.88 216.6 97.5 217.84Z" fill="#B9E2BF" fill-opacity="1.000000" fill-rule="nonzero"/>
		<path id="Vector" d="M92.99 217.17C92.63 218.31 91.95 219.33 91.02 220.09C90.09 220.84 88.96 221.31 87.76 221.43C86.57 221.55 85.37 221.31 84.31 220.75C83.25 220.19 82.38 219.33 81.8 218.28C81.23 217.23 80.98 216.03 81.08 214.83C81.18 213.64 81.64 212.5 82.38 211.56C83.13 210.62 84.13 209.93 85.27 209.55C86.41 209.18 87.63 209.16 88.79 209.47C89.57 209.7 90.31 210.08 90.95 210.58C91.58 211.09 92.11 211.72 92.5 212.44C92.89 213.16 93.14 213.94 93.22 214.76C93.3 215.57 93.22 216.39 92.99 217.17ZM91.19 216.67C91.34 215.86 91.25 215.02 90.93 214.26C90.62 213.5 90.09 212.85 89.41 212.39C88.73 211.93 87.93 211.67 87.11 211.65C86.29 211.63 85.48 211.86 84.78 212.29C84.08 212.73 83.53 213.35 83.18 214.1C82.83 214.85 82.71 215.68 82.83 216.49C82.95 217.31 83.3 218.07 83.84 218.68C84.38 219.3 85.1 219.75 85.89 219.97C86.45 220.12 87.05 220.16 87.63 220.08C88.21 219.99 88.76 219.79 89.26 219.48C89.76 219.17 90.19 218.76 90.52 218.27C90.85 217.79 91.08 217.24 91.19 216.67Z" fill="#B9E2BF" fill-opacity="1.000000" fill-rule="nonzero"/>
		<path id="Vector" d="M75.46 218.16L73.83 217.44L74.4 216.15C73.74 216.47 73.02 216.65 72.28 216.65C71.55 216.65 70.83 216.47 70.17 216.15C67.43 214.94 66.6 212.49 67.97 209.36L70.78 202.94L72.44 203.67L69.58 210.3C68.67 212.38 69.25 213.97 71.02 214.73C73.18 215.68 75.08 214.5 76.2 211.9L78.61 206.42L80.28 207.16L75.46 218.16Z" fill="#B9E2BF" fill-opacity="1.000000" fill-rule="nonzero"/>
		<path id="Vector" d="M64.4 199.24C66.17 200.26 66.87 201.75 65.55 204.04L62.13 209.97L64.18 211.15L63.33 212.6L61.3 211.42L60 213.75L57.57 214.33L59.78 210.44L56.93 208.8L57.76 207.35L60.61 208.99L63.9 203.31C64.63 202.01 64.63 201.21 63.41 200.51C62.97 200.25 62.47 200.1 61.96 200.09L62.78 198.66C63.36 198.7 63.92 198.9 64.4 199.24Z" fill="#B9E2BF" fill-opacity="1.000000" fill-rule="nonzero"/>
		<path id="Vector" d="M53.89 193.73C54.6 193.59 55.32 193.61 56.02 193.78C56.72 193.95 57.38 194.27 57.94 194.72C59.78 196.01 60.78 198.16 59.34 200.13C57.9 202.1 55.68 201.65 53.4 200.13C51.12 198.62 50.35 198.84 49.76 199.61C48.98 200.69 49.56 202.09 50.87 203.05C51.15 203.3 51.49 203.5 51.85 203.63C52.21 203.76 52.59 203.81 52.98 203.78C53.36 203.76 53.73 203.65 54.07 203.48C54.41 203.31 54.72 203.07 54.96 202.77L56.35 203.79C55.98 204.27 55.51 204.67 54.98 204.97C54.44 205.26 53.85 205.44 53.24 205.5C52.63 205.56 52.02 205.49 51.44 205.29C50.86 205.1 50.33 204.79 49.87 204.38C47.41 202.59 47 200.27 48.73 197.9L53.32 191.62L54.48 192.48L53.89 193.73ZM56.84 196.05C56.49 195.74 56.07 195.51 55.61 195.37C55.16 195.24 54.68 195.2 54.21 195.26C53.74 195.33 53.29 195.49 52.89 195.74C52.49 196 52.14 196.33 51.88 196.73L51.28 197.53C52.33 197.75 53.32 198.19 54.19 198.82C56.03 200.02 57.22 200.12 57.87 199.17C58.51 198.23 58.09 196.89 56.84 196.05Z" fill="#B9E2BF" fill-opacity="1.000000" fill-rule="nonzero"/>
		<path id="Vector" d="M41.57 186.2L40.2 184.91C41.22 184.21 42.46 183.89 43.7 184.02C44.93 184.14 46.08 184.7 46.95 185.6C48.06 186.77 48.68 188.32 48.69 189.93C48.69 191.55 48.07 193.11 46.96 194.28C45.85 195.46 44.34 196.16 42.72 196.25C41.11 196.34 39.52 195.8 38.29 194.76C37.36 193.91 36.75 192.76 36.58 191.5C36.41 190.25 36.69 188.98 37.37 187.92L38.78 189.21C38.4 189.89 38.25 190.68 38.38 191.46C38.51 192.23 38.9 192.94 39.48 193.46C40.38 194.2 41.53 194.58 42.69 194.51C43.85 194.44 44.95 193.93 45.75 193.09C46.56 192.25 47.02 191.14 47.03 189.97C47.05 188.81 46.62 187.68 45.84 186.81C45.3 186.24 44.59 185.87 43.81 185.76C43.04 185.65 42.25 185.81 41.57 186.2Z" fill="#B9E2BF" fill-opacity="1.000000" fill-rule="nonzero"/>
		<path id="Vector" d="M38.55 176.8C39.85 178.35 40.01 179.99 37.98 181.7L32.8 186.1L34.31 187.9L33.02 188.98L31.5 187.18L29.43 188.91L26.94 188.63L30.32 185.78L28.21 183.27L29.51 182.19L31.59 184.7L36.61 180.51C37.73 179.56 38.01 178.78 37.11 177.71C36.77 177.3 36.32 176.99 35.82 176.81L37.11 175.76C37.68 175.96 38.18 176.32 38.55 176.8Z" fill="#B9E2BF" fill-opacity="1.000000" fill-rule="nonzero"/>
		<path id="Vector" d="M26.85 159.05L27.73 160.59L26.44 161.29C27.15 161.4 27.83 161.68 28.41 162.11C28.99 162.53 29.46 163.09 29.78 163.74C31.32 166.43 30.38 168.6 27.41 170.3L21.33 173.77L20.43 172.18L26.58 168.68C28.56 167.55 29.17 166.09 28.17 164.37C27.07 162.37 24.93 162.24 22.52 163.66L17.34 166.6L16.4 164.96L26.85 159.05Z" fill="#B9E2BF" fill-opacity="1.000000" fill-rule="nonzero"/>
		<path id="Vector" d="M18.81 153.14L19.12 154.79C19.56 157.24 19 158.79 17.37 159.46C15.19 160.36 13.26 158.84 12.39 156.73C11.9 155.73 11.81 154.58 12.15 153.52C12.5 152.45 13.24 151.57 14.22 151.04L14.89 152.67C14.33 153.02 13.92 153.57 13.75 154.21C13.58 154.85 13.66 155.53 13.97 156.11C14.57 157.56 15.62 158.25 16.57 157.85C17.32 157.53 17.64 156.77 17.37 155.25L17.06 153.61C16.6 151.21 17.06 149.63 18.79 148.91C20.89 148.05 22.9 149.19 23.98 151.75C24.95 154.13 24.61 156.6 22.23 158.03L21.54 156.37C22.16 155.94 22.59 155.29 22.76 154.55C22.93 153.82 22.81 153.04 22.43 152.39C21.75 150.73 20.74 150.06 19.64 150.51C18.78 150.86 18.53 151.63 18.81 153.14Z" fill="#B9E2BF" fill-opacity="1.000000" fill-rule="nonzero"/>
		<path id="Vector" d="M8.7 121.1L11.76 140.87L10.1 141.13L7.04 121.35L8.7 121.1Z" fill="#B9E2BF" fill-opacity="1.000000" fill-rule="nonzero"/>
		<path id="Vector" d="M11.93 96.97L12.16 95C13.86 95.51 15.33 96.62 16.28 98.12C17.23 99.62 17.61 101.41 17.34 103.17C17.24 104.33 16.89 105.45 16.34 106.46C15.79 107.48 15.03 108.38 14.12 109.09C13.21 109.81 12.17 110.34 11.05 110.64C9.93 110.94 8.76 111.01 7.61 110.84C6.47 110.77 5.36 110.46 4.34 109.94C3.32 109.43 2.41 108.71 1.68 107.84C0.94 106.96 0.39 105.95 0.05 104.85C-0.29 103.76 -0.4 102.61 -0.29 101.48C-0.17 99.7 0.59 98.03 1.85 96.78C3.11 95.52 4.78 94.76 6.55 94.65L6.34 96.55C5.06 96.67 3.86 97.25 2.96 98.18C2.07 99.11 1.53 100.33 1.46 101.62C1.05 105.51 3.81 108.54 7.86 108.98C8.77 109.13 9.69 109.09 10.59 108.86C11.48 108.64 12.31 108.24 13.04 107.68C13.77 107.12 14.38 106.41 14.82 105.61C15.27 104.81 15.54 103.92 15.63 103C15.86 101.72 15.61 100.39 14.93 99.28C14.24 98.17 13.18 97.35 11.93 96.97Z" fill="#B9E2BF" fill-opacity="1.000000" fill-rule="nonzero"/>
		<path id="Vector" d="M12.61 92.41C11.77 92.27 10.96 91.95 10.25 91.48C9.53 91.01 8.93 90.4 8.47 89.67C8.01 88.95 7.7 88.14 7.58 87.3C7.45 86.45 7.5 85.58 7.73 84.76C7.96 83.94 8.36 83.17 8.91 82.51C9.46 81.85 10.14 81.32 10.9 80.94C11.67 80.56 12.51 80.34 13.36 80.31C14.22 80.28 15.07 80.43 15.87 80.75C16.71 80.88 17.52 81.2 18.23 81.67C18.95 82.14 19.55 82.76 20.01 83.48C20.48 84.2 20.78 85.01 20.9 85.86C21.03 86.7 20.98 87.57 20.75 88.39C20.52 89.22 20.12 89.98 19.57 90.64C19.02 91.3 18.35 91.84 17.58 92.22C16.81 92.59 15.97 92.81 15.12 92.84C14.26 92.87 13.41 92.73 12.61 92.41ZM13.11 90.6C13.66 90.81 14.24 90.9 14.83 90.86C15.41 90.83 15.99 90.67 16.51 90.41C17.03 90.14 17.49 89.76 17.86 89.31C18.23 88.86 18.5 88.33 18.66 87.76C18.82 87.2 18.86 86.61 18.77 86.03C18.69 85.45 18.48 84.89 18.17 84.39C17.86 83.89 17.45 83.47 16.97 83.14C16.48 82.8 15.94 82.58 15.36 82.47C14.81 82.26 14.22 82.18 13.64 82.21C13.05 82.25 12.48 82.4 11.96 82.67C11.44 82.94 10.98 83.31 10.61 83.76C10.24 84.22 9.96 84.75 9.81 85.31C9.65 85.88 9.61 86.47 9.7 87.05C9.78 87.63 9.98 88.18 10.29 88.68C10.6 89.18 11.01 89.61 11.5 89.94C11.98 90.27 12.53 90.5 13.11 90.6Z" fill="#B9E2BF" fill-opacity="1.000000" fill-rule="nonzero"/>
		<path id="Vector" d="M11.6 74.95L12.32 73.33L13.61 73.89C13.28 73.24 13.11 72.52 13.11 71.79C13.11 71.06 13.28 70.33 13.61 69.68C14.8 66.93 17.27 66.1 20.4 67.47L26.81 70.28L26.09 71.95L19.52 69.08C17.45 68.18 15.85 68.77 15.08 70.52C14.13 72.69 15.31 74.6 17.93 75.71L23.37 78.15L22.64 79.81L11.6 74.95Z" fill="#B9E2BF" fill-opacity="1.000000" fill-rule="nonzero"/>
		<path id="Vector" d="M30.53 63.9C29.51 65.66 28.03 66.38 25.72 65.04L19.8 61.6L18.64 63.63L17.2 62.8L18.38 60.75L16.03 59.46L15.45 57.02L19.34 59.24L20.98 56.38L22.43 57.22L20.72 60.02L26.41 63.29C27.71 64.03 28.52 64.03 29.22 62.82C29.49 62.36 29.62 61.84 29.62 61.31L31.05 62.14C31.06 62.77 30.88 63.38 30.53 63.9Z" fill="#B9E2BF" fill-opacity="1.000000" fill-rule="nonzero"/>
		<path id="Vector" d="M36.04 53.34C36.18 54.05 36.17 54.79 36 55.49C35.83 56.2 35.5 56.86 35.05 57.42C33.76 59.26 31.61 60.26 29.65 58.82C27.69 57.39 28.12 55.16 29.65 52.86C31.04 50.78 30.95 49.83 30.18 49.24C29.11 48.45 27.71 49.04 26.75 50.35C26.49 50.63 26.29 50.97 26.17 51.33C26.04 51.69 25.99 52.07 26.01 52.45C26.04 52.83 26.14 53.21 26.31 53.55C26.48 53.89 26.72 54.2 27.01 54.44L26 55.83C25.51 55.46 25.11 54.99 24.82 54.45C24.53 53.92 24.34 53.33 24.29 52.72C24.23 52.11 24.3 51.5 24.49 50.92C24.69 50.34 24.99 49.81 25.4 49.35C27.2 46.89 29.51 46.48 31.88 48.21L38.07 52.74L37.22 53.91L36.04 53.34ZM33.8 56.3C34.11 55.94 34.34 55.52 34.47 55.07C34.61 54.61 34.65 54.13 34.58 53.66C34.52 53.19 34.36 52.74 34.1 52.34C33.85 51.94 33.52 51.6 33.12 51.33L32.31 50.75C32.09 51.8 31.65 52.8 31.01 53.66C29.82 55.5 29.78 56.67 30.67 57.33C31.57 58 32.89 57.55 33.8 56.3Z" fill="#B9E2BF" fill-opacity="1.000000" fill-rule="nonzero"/>
		<path id="Vector" d="M43.56 41.04L44.86 39.66C45.57 40.68 45.9 41.92 45.77 43.16C45.65 44.39 45.09 45.55 44.19 46.4C43.02 47.52 41.47 48.15 39.85 48.15C38.23 48.16 36.67 47.54 35.5 46.43C34.32 45.33 33.61 43.81 33.52 42.19C33.43 40.58 33.97 38.99 35.01 37.76C35.86 36.82 37.01 36.21 38.27 36.04C39.52 35.88 40.79 36.16 41.85 36.84L40.56 38.24C39.87 37.86 39.08 37.72 38.31 37.84C37.53 37.97 36.82 38.36 36.3 38.94C35.9 39.37 35.6 39.87 35.41 40.42C35.21 40.98 35.14 41.56 35.18 42.14C35.22 42.72 35.38 43.29 35.65 43.81C35.91 44.33 36.29 44.79 36.74 45.16C37.13 45.59 37.61 45.94 38.15 46.18C38.68 46.42 39.26 46.54 39.85 46.55C40.43 46.56 41.02 46.45 41.56 46.22C42.1 45.99 42.59 45.66 42.99 45.24C43.54 44.7 43.9 44 44 43.23C44.11 42.47 43.95 41.7 43.56 41.04Z" fill="#B9E2BF" fill-opacity="1.000000" fill-rule="nonzero"/>
		<path id="Vector" d="M52.96 37.99C51.39 39.29 49.76 39.46 48.05 37.44L43.64 32.25L41.84 33.77L40.77 32.47L42.57 30.96L40.82 28.92L41.1 26.44L43.95 29.82L46.54 27.69L47.62 28.99L45.03 31.11L49.26 36.13C50.21 37.25 51 37.54 52.06 36.63C52.47 36.29 52.78 35.84 52.96 35.34L54.02 36.63C53.79 37.17 53.43 37.64 52.96 37.99Z" fill="#B9E2BF" fill-opacity="1.000000" fill-rule="nonzero"/>
		<path id="Vector" d="M70.73 26.33L69.16 27.2L68.46 25.91C68.35 26.61 68.06 27.29 67.64 27.87C67.21 28.45 66.66 28.92 66.01 29.25C63.32 30.78 61.14 29.84 59.46 26.88L55.99 20.79L57.57 19.89L61.07 26.03C62.21 28.03 63.66 28.63 65.37 27.63C67.4 26.47 67.52 24.35 66.11 21.88L63.16 16.69L64.75 15.79L70.73 26.33Z" fill="#B9E2BF" fill-opacity="1.000000" fill-rule="nonzero"/>
		<path id="Vector" d="M76.64 18.27L74.98 18.56C72.53 19.01 70.98 18.45 70.3 16.82C69.41 14.67 70.92 12.73 73.05 11.86C74.05 11.36 75.21 11.27 76.27 11.61C77.34 11.95 78.23 12.7 78.75 13.69L77.12 14.36C76.78 13.78 76.23 13.35 75.59 13.17C74.94 12.99 74.25 13.06 73.66 13.38C72.21 13.97 71.52 15.03 71.92 15.97C72.23 16.72 73.01 17.04 74.51 16.77L76.17 16.46C78.56 16 80.14 16.46 80.86 18.19C81.73 20.28 80.59 22.29 78.01 23.38C75.65 24.35 73.18 24.01 71.74 21.61L73.4 20.94C73.83 21.56 74.48 21.99 75.22 22.15C75.95 22.32 76.72 22.2 77.38 21.82C79.03 21.15 79.71 20.13 79.25 19.04C78.9 18.23 78.14 17.99 76.64 18.27Z" fill="#B9E2BF" fill-opacity="1.000000" fill-rule="nonzero"/>
		<path id="Vector" d="M108.68 8.19L88.89 11.21L88.6 9.57L108.42 6.51L108.68 8.19Z" fill="#B9E2BF" fill-opacity="1.000000" fill-rule="nonzero"/>
	</g>
</svg>
