<svg width="1585.000000" height="200.000000" viewBox="0 0 1585 200" fill="none" xmlns="http://www.w3.org/2000/svg" xmlns:xlink="http://www.w3.org/1999/xlink">
	<desc>
			Created with Pixso.
	</desc>
	<defs/>
	<path id="Vector" d="M1584.02 200L1584.02 57.01C1565.75 52.35 1547.25 52.31 1512.63 57.66C1455.79 66.43 1387.43 89.67 1330.69 99.06C1265.21 109.9 1224.42 58.09 1129.96 20.12C1047.78 -12.92 922.43 -1.52 807.23 27.24C775.61 35.14 663.55 66.55 634.78 71.95C563.29 85.37 484.24 95.24 427.55 85.86C370.85 76.48 351.56 29.98 294.72 21.21C226.7 10.7 130.83 26.76 66.77 52.04C50.88 58.31 18.41 67.62 0 71.28L0 200L1584.02 200Z" fill="#3A173C" fill-opacity="1.000000" fill-rule="nonzero"/>
</svg>
