<svg width="121.000000" height="41.000000" viewBox="0 0 121 41" fill="none" xmlns="http://www.w3.org/2000/svg" xmlns:xlink="http://www.w3.org/1999/xlink">
	<desc>
			Created with Pixso.
	</desc>
	<defs/>
	<path id="Vector" d="M120 10.93C120 12.54 118.74 13.66 117.11 13.66C115.49 13.66 114.23 12.42 114.23 10.93C114.23 9.44 115.49 8.19 117.11 8.19C118.74 8.19 120 9.31 120 10.93ZM114.99 10.93C114.99 12.17 115.86 13.16 117.11 13.16C118.37 13.16 119.24 12.17 119.24 10.93C119.24 9.68 118.37 8.69 117.11 8.69C115.86 8.69 114.99 9.68 114.99 10.93ZM116.74 12.29L116.11 12.29L116.11 9.56C116.36 9.56 116.74 9.44 117.11 9.44C117.62 9.44 117.87 9.56 118.12 9.68C118.24 9.81 118.37 10.06 118.37 10.31C118.37 10.56 118.12 10.8 117.74 10.93C117.99 11.05 118.12 11.18 118.24 11.55C118.37 11.92 118.37 12.17 118.49 12.29L117.74 12.29C117.62 12.17 117.62 11.92 117.49 11.67C117.62 11.3 117.37 11.18 117.11 11.18L116.86 11.18L116.86 12.29L116.74 12.29ZM116.74 10.8L116.99 10.8C117.37 10.8 117.62 10.68 117.62 10.43C117.62 10.18 117.49 10.06 116.99 10.06C116.86 10.06 116.74 10.06 116.61 10.06L116.61 10.8L116.74 10.8Z" fill="#E0DCDB" fill-opacity="1.000000" fill-rule="nonzero"/>
	<path id="Vector" d="M12.65 7.82C9.64 7.82 6.88 8.94 4.75 10.81L4.75 8.69L0 8.69L0 41L4.75 41L4.75 28.57C6.88 30.43 9.64 31.55 12.65 31.55C19.29 31.55 24.67 26.21 24.67 19.63C24.67 13.04 19.16 7.82 12.65 7.82ZM12.65 26.96C8.64 26.96 5.38 23.73 5.38 19.75C5.38 15.77 8.64 12.54 12.65 12.54C16.65 12.54 19.91 15.77 19.91 19.75C19.91 23.73 16.65 26.96 12.65 26.96Z" fill="#E0DCDB" fill-opacity="1.000000" fill-rule="nonzero"/>
	<path id="Vector" d="M99.08 7.82C92.44 7.82 87.05 13.16 87.05 19.75C87.05 26.33 92.44 31.68 99.08 31.68C105.72 31.68 111.1 26.33 111.1 19.75C111.1 13.16 105.72 7.82 99.08 7.82ZM99.08 26.96C95.07 26.96 91.81 23.73 91.81 19.75C91.81 15.77 95.07 12.54 99.08 12.54C103.09 12.54 106.34 15.77 106.34 19.75C106.34 23.73 103.09 26.96 99.08 26.96Z" fill="#E0DCDB" fill-opacity="1.000000" fill-rule="nonzero"/>
	<path id="Vector" d="M28.55 0L33.31 0L33.31 31.55L28.55 31.55L28.55 0Z" fill="#E0DCDB" fill-opacity="1.000000" fill-rule="nonzero"/>
	<path id="Vector" d="M56.86 10.81C54.73 8.94 51.98 7.82 48.97 7.82C42.33 7.82 36.95 13.16 36.95 19.75C36.95 26.33 42.33 31.68 48.97 31.68C51.98 31.68 54.73 30.56 56.86 28.7L56.86 31.68L61.62 31.68L61.62 8.69L56.86 8.69L56.86 10.81ZM48.97 26.96C44.96 26.96 41.71 23.73 41.71 19.75C41.71 15.77 44.96 12.54 48.97 12.54C52.98 12.54 56.24 15.77 56.24 19.75C56.24 23.73 52.98 26.96 48.97 26.96Z" fill="#E0DCDB" fill-opacity="1.000000" fill-rule="nonzero"/>
	<path id="Vector" d="M65.38 13.04L72.9 13.04L72.9 31.68L77.66 31.68L77.66 13.04L85.3 13.04L85.3 8.44L65.38 8.44L65.38 13.04Z" fill="#E0DCDB" fill-opacity="1.000000" fill-rule="nonzero"/>
</svg>
