<svg width="289.000000" height="289.000000" viewBox="0 0 289 289" fill="none" xmlns="http://www.w3.org/2000/svg" xmlns:xlink="http://www.w3.org/1999/xlink">
	<desc>
			Created with Pixso.
	</desc>
	<defs/>
	<path id="Vector" d="M124.52 19.38C104.48 22.38 84.33 29.4 68.82 42.98C56.54 53.72 45.52 64.86 36.73 78.72C28.14 92.16 21.35 107.25 18.87 123.06C16.75 136.42 17.3 150.16 19.37 163.46C23.29 188.51 37.2 213.45 55.04 231.44C66.86 243.35 80.9 252.85 96.31 259.53C117.22 268.55 140.91 272.2 163.47 268.68C232.26 257.93 279.36 193.39 268.61 124.59C267.17 115.33 264.69 106.3 261.26 97.62C248.45 65.22 217.68 35.89 184.59 24.63C166.93 18.5 147.92 16.53 129.36 18.69C127.78 18.87 126.15 19.13 124.52 19.38ZM162.98 265.14C124.26 271.66 82.2 255.59 55.53 227.29C26.88 196.96 10.47 144.95 27.47 104.95C34.8 87.77 44.58 71.68 57.8 58.4C82.64 33.54 116.79 18.65 152.05 21.56C176.01 23.56 199.08 32.72 218.29 47.08C224.57 51.78 228.93 56.58 234.11 62.38C250.12 80.19 259.33 102.8 264.42 125.98C269.12 147.49 265.34 172.93 256.47 193.09C254.19 198.19 251.56 203.14 248.55 207.82C242.63 216.96 235.58 225.28 227.57 232.61C211.86 247.02 192.41 257.67 171.89 263.15C168.95 264.01 165.98 264.68 162.98 265.14Z" fill="#E1DDDC" fill-opacity="1.000000" fill-rule="nonzero"/>
	<path id="Vector" d="M160.23 40.11C143.55 37.37 125.77 37.86 110.01 44.69C97.54 50.09 85.98 56.1 75.46 64.87C65.25 73.36 56.03 83.61 50.02 95.57C44.91 105.66 41.92 116.68 40.18 127.76C36.92 148.63 41.63 171.95 51.25 190.75C57.59 203.23 66.34 214.35 76.86 223.54C91.21 236 108.99 244.93 127.83 247.87C185.22 256.84 238.97 217.61 247.94 160.22C249.14 152.53 249.5 144.7 248.97 136.94C247.02 107.97 230.03 76.86 206.63 59.51C194.12 50.21 179.55 43.86 164.31 40.88C162.89 40.59 161.59 40.32 160.23 40.11ZM128.22 244.99C95.81 240.33 66.55 216.85 52.53 187.68C37.53 156.28 37.75 110.82 61.4 83.45C71.59 71.68 83.41 61.44 97.3 54.19C123.39 40.7 154.28 37.57 181.56 48.92C200.06 56.62 216.05 69.74 227.6 86.04C231.37 91.37 233.62 96.26 236.3 102.16C244.48 120.34 246.06 140.62 244.19 160.3C242.46 178.61 232.98 197.83 220.81 211.56C217.73 215.02 214.35 218.3 210.74 221.28C203.77 227 196 231.87 187.79 235.66C171.6 243.09 153.47 246.67 135.85 245.72C133.27 245.58 130.77 245.32 128.22 244.99Z" fill="#E1DDDC" fill-opacity="1.000000" fill-rule="nonzero"/>
	<path id="Vector" d="M131.15 61.98C116.76 64.83 102.94 71.27 91.41 80.01C68.96 97.08 57.09 129.27 61.4 156.85C65.66 184.11 87.44 210.63 112.86 221.15C125.58 226.45 139.6 228.53 153.31 226.92C154.49 226.81 155.6 226.63 156.78 226.45C178.1 223.12 197.41 209.88 210.32 192.9C235.59 159.69 231.34 111.13 200.58 82.67C186.68 69.81 166.79 60.49 147.59 60.35C142.11 60.34 136.6 60.93 131.15 61.98ZM156.39 223.57C148.96 224.73 141.27 224.66 133.42 223.22C99.04 216.9 71.47 191.35 65.96 156.14C62.87 136.31 67.43 115.89 78.6 99.32C89.01 83.86 105.49 72.61 123.22 67.23C137.38 62.95 152.91 62.32 167.18 66.44C197.54 75.19 217.15 101.52 221.88 131.78C226.22 159.56 215.2 186.93 194.7 205.36C184.09 214.84 170.48 221.37 156.39 223.57Z" fill="#E1DDDC" fill-opacity="1.000000" fill-rule="nonzero"/>
	<path id="Vector" d="M153.12 85.9C142.13 84.45 129.61 86.77 119.48 91.26C103.97 98.19 91.41 112.33 87.03 128.81C83.02 143.82 86.46 160.25 94.42 173.45C100.1 182.82 108.1 191.09 117.76 196.34C138.87 207.92 169.54 202.29 186.1 185.24C193.66 177.47 199.06 167.69 201.45 157.11C201.72 155.81 201.99 154.52 202.2 153.15C205.69 130.78 193.32 103.07 172.95 92.4C166.54 88.93 159.87 86.75 153.12 85.9ZM135.44 198.23C128.44 197.27 120.17 192.91 114.29 189.05C107.44 184.57 101.36 178.61 97.19 171.55C92.27 163.23 89.91 153.58 90.01 143.97C90.05 133.02 92.54 120.92 98.95 111.97C112.96 92.38 135.42 87.61 158.13 91.02C172.16 93.15 183.54 103.28 190.35 115.29C196.73 126.58 201.21 138.1 198.78 151.08C196.49 163.21 189.86 174 181.95 183.12C175.03 191.06 162.91 195.98 152.63 197.64C147.17 198.39 141.13 198.99 135.44 198.23Z" fill="#E1DDDC" fill-opacity="1.000000" fill-rule="nonzero"/>
	<path id="Vector" d="M139.11 112.73C133.56 113.59 128.2 116.04 123.87 119.52C100 138.61 119.02 179.99 148.89 175.33C164.28 172.92 174.12 161.1 175 145.8C176.12 126.05 158.54 109.69 139.11 112.73ZM148.16 171.1C142.16 172.04 136.07 171.12 131.05 167.63C127.31 165.07 124.34 161.46 121.88 157.7C116.25 149.03 114.83 140.37 119.99 131.01C127.26 117.72 141.22 113.4 155.07 118.25C164.26 121.49 169.44 130.3 170.94 139.89C173.27 154.82 163.09 168.77 148.16 171.1Z" fill="#E1DDDC" fill-opacity="1.000000" fill-rule="nonzero"/>
</svg>
