<svg width="392.000000" height="466.000000" viewBox="0 0 392 466" fill="none" xmlns="http://www.w3.org/2000/svg" xmlns:xlink="http://www.w3.org/1999/xlink">
	<desc>
			Created with Pixso.
	</desc>
	<defs/>
	<path id="Vector" d="M268.79 456.59C291.51 445.37 314.19 428.95 332.87 406.4C361.83 371.42 382.34 325 387.5 274.89C387.44 272.5 386.38 272.11 384.52 272.16C382.66 272.21 382.3 273.23 382.38 274.88C379.58 305.55 370.58 335.49 358.28 360.53C354.16 368.89 349.55 376.81 344.47 384.22C334.59 398.59 323.34 411.26 310.99 421.92C300.57 430.96 278.8 444.48 267.15 450.54L268.79 456.59ZM9.63 288.49C15.42 316.53 26.34 348.97 39.01 371.71C52.44 395.8 69.3 416.32 88.67 432.15C102.44 443.45 117.36 452.2 132.99 458.14C135.07 458.9 135.74 453.05 132.99 452.07C95.8 437.67 62.1 405.55 40.51 364.65C29.43 343.64 19.5 311.22 14.28 284.67L9.63 288.49ZM269.51 12.62C297.49 24.31 322.81 44.82 343.22 72.32C350.68 82.27 355.55 91.9 361.31 103.4C368.27 117.46 373.87 132.58 377.98 148.43L384.4 146.19C369.63 95.37 338.61 48.17 302.55 23.54C292.75 16.58 282.4 10.98 271.7 6.84C265.41 4.48 266.48 5.12 265.8 6.84C265.11 8.55 264.95 10.72 269.51 12.62ZM113.65 9.55C108.02 12.68 96.69 19.38 91.47 23.68C72.67 39.15 55.49 55.52 40.72 77.49C26.34 98.71 14.07 120.43 7.34 147.47C6.43 151.12 5.61 154.8 4.88 158.51C4.31 161.19 6.86 164.41 9.34 158.51C12.38 144.29 16.82 133.46 22.8 120.96C36.28 92.84 52.83 67.4 73.46 47.77C84.54 37.19 101.86 22.84 114.38 15.85L113.65 9.55Z" fill="#E1DDDC" fill-opacity="1.000000" fill-rule="nonzero"/>
	<path id="Vector" d="M377.17 136.93C378.37 140.73 378.48 145.04 377.8 144.68C376.72 144.12 371.21 138.22 362.67 134.23C359.86 132.93 356.94 132.6 357.19 134.51C357.3 135.66 358.51 136.78 359.93 137.88C361.35 138.98 363.06 140.02 364.13 140.71C369.74 144.13 375.02 148.42 379.84 153.49C382.75 156.57 384.09 157.72 384.68 157.52C385.27 157.33 385.8 155.84 386.78 152.54C388.18 147.39 389.26 142.1 390 136.72C390.94 130.34 391.26 123.83 390.95 117.34C390.74 112.88 390.09 110.53 389.52 109.35C387.69 105.96 387.07 109.59 386.72 114.38C386.56 116.82 386.38 119.55 386.22 121.9C386.06 124.25 385.89 126.33 385.71 127.5C384.8 135.65 383.36 144.5 382.52 142.87C382.21 142.23 381.4 139.38 379.76 134.49L377.17 136.93Z" fill="#E1DDDC" fill-opacity="1.000000" fill-rule="nonzero"/>
	<path id="Vector" d="M273.86 448.54C271.05 450.37 267.74 450.84 267.96 449.92C268.31 448.49 272.47 440.88 274.87 429.52C275.66 425.78 275.69 421.97 274.25 422.45C273.38 422.67 272.6 424.31 271.87 426.24C271.13 428.16 270.46 430.46 270 431.9C267.79 439.43 264.89 446.59 261.36 453.22C259.21 457.22 258.43 459.04 258.62 459.79C258.8 460.54 259.99 461.08 262.59 462.14C266.64 463.58 270.78 464.58 274.96 465.13C279.91 465.87 284.91 465.81 289.85 464.93C293.26 464.34 295.01 463.33 295.88 462.49C298.35 459.91 295.53 459.34 291.82 459.24L286.02 459.13C284.18 459.13 282.59 459.03 281.69 458.89C275.37 458.29 268.48 457.09 269.67 455.88C270.14 455.42 272.25 454.16 275.9 451.68L273.86 448.54Z" fill="#E1DDDC" fill-opacity="1.000000" fill-rule="nonzero"/>
	<path id="Vector" d="M15.6 296.03C14.92 292.03 14.25 287.59 14.89 288.11C15.88 288.88 21.64 296.13 29.54 301.93C32.13 303.84 34.96 304.81 34.96 302.88C34.96 301.71 33.97 300.29 32.72 299C31.47 297.71 29.92 296.18 28.95 295.25C23.87 290.6 19.24 285.17 15.17 279.06C12.7 275.37 11.53 273.89 10.93 274C10.32 274.1 9.6 275.41 8.2 278.44C6.14 283.2 4.38 288.17 2.94 293.3C1.17 299.39 0 305.74 -0.56 312.2C-0.94 316.64 -0.62 319.09 -0.21 320.38C1.15 324.14 2.23 320.71 3.22 316.06C3.7 313.69 4.21 311.08 4.71 308.77C5.2 306.45 5.61 304.46 5.94 303.37C7.93 295.54 10.51 287.15 11.11 288.93C11.34 289.64 11.76 292.62 12.73 297.81L15.6 296.03Z" fill="#E1DDDC" fill-opacity="1.000000" fill-rule="nonzero"/>
	<path id="Vector" d="M108.49 18.05C111.41 16.5 114.66 14.9 114.38 15.79C113.96 17.19 109.42 25.82 106.38 36.92C105.38 40.57 105.11 44.36 106.57 44.04C107.47 43.89 108.33 42.34 109.18 40.48C109.98 38.71 110.71 36.89 111.37 35.03C114.01 27.74 117.32 20.89 121.24 14.64C123.62 10.85 124.5 9.11 124.36 8.35C124.21 7.58 123.06 6.89 120.53 5.61C116.58 3.76 112.51 2.34 108.38 1.36C103.48 0.13 98.47 -0.31 93.48 0.06C90.05 0.32 88.25 1.16 87.34 1.9C84.72 4.28 87.5 5.09 91.2 5.56L96.97 6.24C98.81 6.45 100.39 6.68 101.28 6.91C107.54 8.13 114.33 10.03 113.08 11.11C112.58 11.51 110.4 12.56 106.62 14.68L108.49 18.05Z" fill="#E1DDDC" fill-opacity="1.000000" fill-rule="nonzero"/>
</svg>
