<svg width="164.000000" height="178.000000" viewBox="0 0 164 178" fill="none" xmlns="http://www.w3.org/2000/svg" xmlns:xlink="http://www.w3.org/1999/xlink">
  <desc>
    Created with Pixso.
  </desc>
  <defs>
    <linearGradient id="gradient">
      <stop offset="0%" stop-color="#b9e2bf">
        <animate attributeName="stop-color" values="#b9e2bf; #7be885; #83f096; #7be885; #b9e2bf" dur="5s" repeatCount="indefinite"/>
      </stop>
      <stop offset="50%" stop-color="#7be885">
        <animate attributeName="stop-color" values="#7be885; #83f096; #b9e2bf; #83f096; #7be885" dur="5s" repeatCount="indefinite"/>
      </stop>
      <stop offset="100%" stop-color="#83f096">
        <animate attributeName="stop-color" values="#83f096; #b9e2bf; #7be885; #b9e2bf; #83f096" dur="5s" repeatCount="indefinite"/>
      </stop>
    </linearGradient>
  </defs>
  <path id="Vector" d="M141.26 88.79C128.14 112.42 108.19 134.01 83.07 146.42C66.92 154.54 52.02 156.8 34.48 153.46C33.47 153.22 32.46 152.87 31.32 152.75C30.31 152.63 29.17 152.87 28.04 153.94C21.98 159.91 15.92 165.39 9.99 171.36C8.47 172.91 3.68 178.52 1.15 177.33C-1.75 175.89 0.39 174.46 1.66 173.03C3.55 170.64 8.22 165.87 10.49 163.72C15.29 159.07 20.72 153.7 24.38 148.69C27.03 144.99 22.99 134.37 23.37 128.05C24.12 112.9 29.3 98.1 36.37 84.5C49.37 59.56 70.7 34.74 97.21 22.22C110.46 16.13 123.85 10.17 138.11 5.99C145.81 3.72 161.97 -8.45 163.23 6.59C165.12 30.09 158.05 53.83 148.21 75.19C146.06 79.73 143.66 84.38 141.26 88.79Z" fill="url(#gradient)"/>
</svg>

