<?xml version="1.0" standalone="no"?>
<!DOCTYPE svg PUBLIC "-//W3C//DTD SVG 20010904//EN"
 "http://www.w3.org/TR/2001/REC-SVG-20010904/DTD/svg10.dtd">
<svg version="1.0" xmlns="http://www.w3.org/2000/svg"
 width="712.000000pt" height="712.000000pt" viewBox="0 0 712.000000 712.000000"
 preserveAspectRatio="xMidYMid meet">
<metadata>
Created by potrace 1.14, written by Peter Selinger 2001-2017
</metadata>
<g transform="translate(0.000000,712.000000) scale(0.100000,-0.100000)"
fill="#000000" stroke="none">
<path d="M6295 7091 c-38 -15 -146 -62 -238 -105 -111 -51 -271 -111 -465
-175 -401 -133 -721 -261 -1215 -485 -514 -233 -806 -415 -1197 -744 -151
-128 -469 -444 -604 -602 -716 -836 -1207 -1825 -1331 -2680 -40 -278 -38
-384 16 -705 35 -215 37 -343 5 -403 -38 -73 -236 -292 -507 -562 -157 -157
-329 -334 -382 -395 -84 -95 -97 -115 -97 -145 0 -29 6 -39 29 -53 76 -45 128
-11 406 262 406 399 700 678 735 696 39 20 86 17 230 -14 244 -53 646 -72 885
-42 512 63 1041 279 1584 644 584 393 1138 967 1555 1610 349 539 692 1274
876 1884 158 520 225 910 237 1378 9 382 -15 549 -91 630 l-33 35 -164 -1
c-155 0 -168 -2 -234 -28z"/>
</g>
</svg>
